<svg width="18" height="18" viewBox="0 0 18 18" fill="none" xmlns="http://www.w3.org/2000/svg">
<path d="M15.75 9.00012C15.75 9.14931 15.6907 9.29238 15.5852 9.39787C15.4798 9.50336 15.3367 9.56262 15.1875 9.56262H9.5625V15.1876C9.5625 15.3368 9.50324 15.4799 9.39775 15.5854C9.29226 15.6909 9.14919 15.7501 9 15.7501C8.85082 15.7501 8.70774 15.6909 8.60225 15.5854C8.49676 15.4799 8.4375 15.3368 8.4375 15.1876V9.56262H2.8125C2.66332 9.56262 2.52024 9.50336 2.41475 9.39787C2.30926 9.29238 2.25 9.14931 2.25 9.00012C2.25 8.85094 2.30926 8.70786 2.41475 8.60238C2.52024 8.49689 2.66332 8.43762 2.8125 8.43762H8.4375V2.81262C8.4375 2.66344 8.49676 2.52036 8.60225 2.41487C8.70774 2.30939 8.85082 2.25012 9 2.25012C9.14919 2.25012 9.29226 2.30939 9.39775 2.41487C9.50324 2.52036 9.5625 2.66344 9.5625 2.81262V8.43762H15.1875C15.3367 8.43762 15.4798 8.49689 15.5852 8.60238C15.6907 8.70786 15.75 8.85094 15.75 9.00012Z" fill="#0070DF"/>
</svg>
