<svg width="18" height="19" viewBox="0 0 18 19" fill="none" xmlns="http://www.w3.org/2000/svg">
<path d="M15.75 9.68574C15.75 9.83492 15.6907 9.978 15.5852 10.0835C15.4797 10.189 15.3366 10.2482 15.1875 10.2482H4.17019L8.27292 14.3503C8.32519 14.4025 8.36664 14.4646 8.39493 14.5329C8.42321 14.6011 8.43777 14.6743 8.43777 14.7482C8.43777 14.8221 8.42321 14.8953 8.39493 14.9636C8.36664 15.0319 8.32519 15.0939 8.27292 15.1462C8.22066 15.1985 8.15862 15.2399 8.09033 15.2682C8.02205 15.2965 7.94886 15.3111 7.87495 15.3111C7.80104 15.3111 7.72786 15.2965 7.65957 15.2682C7.59129 15.2399 7.52925 15.1985 7.47699 15.1462L2.41449 10.0837C2.36219 10.0315 2.3207 9.96943 2.29239 9.90114C2.26408 9.83286 2.24951 9.75966 2.24951 9.68574C2.24951 9.61182 2.26408 9.53862 2.29239 9.47033C2.3207 9.40205 2.36219 9.34001 2.41449 9.28777L7.47699 4.22527C7.58253 4.11972 7.72569 4.06042 7.87495 4.06042C8.02422 4.06042 8.16738 4.11972 8.27292 4.22527C8.37847 4.33082 8.43777 4.47397 8.43777 4.62324C8.43777 4.7725 8.37847 4.91566 8.27292 5.02121L4.17019 9.12324H15.1875C15.3366 9.12324 15.4797 9.1825 15.5852 9.28799C15.6907 9.39348 15.75 9.53655 15.75 9.68574Z" fill="#0070DF"/>
</svg>
