<svg width="213" height="82" viewBox="0 0 213 82" fill="none" xmlns="http://www.w3.org/2000/svg">
<path d="M85.593 28.8968L83.5 27.411L94.3844 9.88407L101.772 18.5731L111.523 2.62634L118.911 13.7844L127.506 0L129.5 1.53524L118.941 18.4794L111.617 7.3861L102.132 22.8932L94.7289 14.1894L85.593 28.8968ZM114.529 41.0767C116.584 41.0767 118.32 40.3655 119.739 38.9432C121.157 37.521 121.866 35.7797 121.866 33.7194C121.866 31.6596 121.157 29.9188 119.738 28.4969C118.319 27.0751 116.582 26.3641 114.527 26.3641C112.472 26.3641 110.736 27.0753 109.317 28.4976C107.899 29.9198 107.19 31.6611 107.19 33.7214C107.19 35.7812 107.899 37.522 109.318 38.9439C110.737 40.3657 112.474 41.0767 114.529 41.0767ZM127.737 48.7785L120.527 41.5503C119.696 42.2152 118.774 42.7304 117.762 43.0958C116.748 43.4612 115.67 43.6439 114.528 43.6439C111.778 43.6439 109.441 42.6799 107.516 40.7519C105.591 38.8243 104.629 36.4833 104.629 33.7291C104.629 30.9748 105.59 28.6309 107.514 26.6973C109.436 24.7637 111.772 23.7969 114.519 23.7969C117.267 23.7969 119.605 24.7617 121.534 26.6915C123.463 28.6208 124.427 30.9637 124.427 33.7201C124.427 34.8655 124.245 35.9543 123.88 36.9863C123.516 38.0179 123.002 38.9503 122.339 39.7834L129.5 47.0109L127.737 48.7785Z" fill="#B0B0B0"/>
<path d="M2.47798 75.5466H6.70598V76.7786H1.17598V66.9786H2.47798V75.5466ZM13.5205 75.8966C12.8018 76.6059 11.9291 76.9606 10.9025 76.9606C9.87581 76.9606 9.00314 76.6059 8.28448 75.8966C7.57514 75.1872 7.22048 74.3146 7.22048 73.2786C7.22048 72.2426 7.57514 71.3699 8.28448 70.6606C9.00314 69.9512 9.87581 69.5966 10.9025 69.5966C11.9291 69.5966 12.8018 69.9512 13.5205 70.6606C14.2391 71.3699 14.5985 72.2426 14.5985 73.2786C14.5985 74.3146 14.2391 75.1872 13.5205 75.8966ZM10.9025 75.7706C11.6025 75.7706 12.1905 75.5326 12.6665 75.0566C13.1425 74.5806 13.3805 73.9879 13.3805 73.2786C13.3805 72.5692 13.1425 71.9766 12.6665 71.5006C12.1905 71.0246 11.6025 70.7866 10.9025 70.7866C10.2118 70.7866 9.62848 71.0246 9.15248 71.5006C8.67648 71.9766 8.43848 72.5692 8.43848 73.2786C8.43848 73.9879 8.67648 74.5806 9.15248 75.0566C9.62848 75.5326 10.2118 75.7706 10.9025 75.7706ZM21.9424 75.8966C21.2237 76.6059 20.351 76.9606 19.3244 76.9606C18.2977 76.9606 17.425 76.6059 16.7064 75.8966C15.997 75.1872 15.6424 74.3146 15.6424 73.2786C15.6424 72.2426 15.997 71.3699 16.7064 70.6606C17.425 69.9512 18.2977 69.5966 19.3244 69.5966C20.351 69.5966 21.2237 69.9512 21.9424 70.6606C22.661 71.3699 23.0204 72.2426 23.0204 73.2786C23.0204 74.3146 22.661 75.1872 21.9424 75.8966ZM19.3244 75.7706C20.0244 75.7706 20.6124 75.5326 21.0884 75.0566C21.5644 74.5806 21.8024 73.9879 21.8024 73.2786C21.8024 72.5692 21.5644 71.9766 21.0884 71.5006C20.6124 71.0246 20.0244 70.7866 19.3244 70.7866C18.6337 70.7866 18.0504 71.0246 17.5744 71.5006C17.0984 71.9766 16.8604 72.5692 16.8604 73.2786C16.8604 73.9879 17.0984 74.5806 17.5744 75.0566C18.0504 75.5326 18.6337 75.7706 19.3244 75.7706ZM30.3782 76.7786H28.8662L25.6742 73.4606V76.7786H24.4562V66.9786H25.6742V72.8726L28.6982 69.7786H30.2662L26.9202 73.1666L30.3782 76.7786ZM32.0277 71.6686C32.0277 71.9392 32.163 72.1586 32.4337 72.3266C32.7044 72.4852 33.031 72.6159 33.4137 72.7186C33.7964 72.8119 34.179 72.9239 34.5617 73.0546C34.9444 73.1759 35.271 73.3906 35.5417 73.6986C35.8124 73.9972 35.9477 74.3846 35.9477 74.8606C35.9477 75.4952 35.7004 76.0039 35.2057 76.3866C34.7204 76.7692 34.095 76.9606 33.3297 76.9606C32.6484 76.9606 32.065 76.8112 31.5797 76.5126C31.0944 76.2139 30.749 75.8172 30.5437 75.3226L31.5937 74.7206C31.7057 75.0566 31.9157 75.3226 32.2237 75.5186C32.5317 75.7146 32.9004 75.8126 33.3297 75.8126C33.731 75.8126 34.0624 75.7379 34.3237 75.5886C34.585 75.4299 34.7157 75.1872 34.7157 74.8606C34.7157 74.5899 34.5804 74.3752 34.3097 74.2166C34.039 74.0486 33.7124 73.9179 33.3297 73.8246C32.947 73.7219 32.5644 73.6052 32.1817 73.4746C31.799 73.3439 31.4724 73.1292 31.2017 72.8306C30.931 72.5319 30.7957 72.1492 30.7957 71.6826C30.7957 71.0759 31.029 70.5766 31.4957 70.1846C31.9717 69.7926 32.5644 69.5966 33.2737 69.5966C33.843 69.5966 34.347 69.7272 34.7857 69.9886C35.2337 70.2406 35.5697 70.5952 35.7937 71.0526L34.7717 71.6266C34.5197 71.0292 34.0204 70.7306 33.2737 70.7306C32.9284 70.7306 32.6344 70.8146 32.3917 70.9826C32.149 71.1412 32.0277 71.3699 32.0277 71.6686ZM40.8898 76.7786V66.5586H42.1078V76.7786H40.8898ZM44.582 68.5046C44.3487 68.5046 44.1527 68.4252 43.994 68.2666C43.8353 68.1079 43.756 67.9166 43.756 67.6926C43.756 67.4686 43.8353 67.2772 43.994 67.1186C44.1527 66.9506 44.3487 66.8666 44.582 66.8666C44.806 66.8666 44.9973 66.9506 45.156 67.1186C45.3147 67.2772 45.394 67.4686 45.394 67.6926C45.394 67.9166 45.3147 68.1079 45.156 68.2666C44.9973 68.4252 44.806 68.5046 44.582 68.5046ZM43.966 76.7786V69.7786H45.184V76.7786H43.966ZM52.9642 76.7786H51.4522L48.2602 73.4606V76.7786H47.0422V66.9786H48.2602V72.8726L51.2842 69.7786H52.8522L49.5062 73.1666L52.9642 76.7786ZM54.3083 73.8386C54.4296 74.4639 54.7143 74.9492 55.1623 75.2946C55.6196 75.6399 56.1796 75.8126 56.8423 75.8126C57.7663 75.8126 58.4383 75.4719 58.8583 74.7906L59.8943 75.3786C59.2129 76.4332 58.1863 76.9606 56.8143 76.9606C55.7036 76.9606 54.7983 76.6152 54.0983 75.9246C53.4076 75.2246 53.0623 74.3426 53.0623 73.2786C53.0623 72.2239 53.4029 71.3466 54.0843 70.6466C54.7656 69.9466 55.6476 69.5966 56.7303 69.5966C57.7569 69.5966 58.5923 69.9606 59.2363 70.6886C59.8896 71.4072 60.2163 72.2752 60.2163 73.2926C60.2163 73.4699 60.2023 73.6519 60.1743 73.8386H54.3083ZM56.7303 70.7446C56.0769 70.7446 55.5356 70.9312 55.1063 71.3046C54.6769 71.6686 54.4109 72.1586 54.3083 72.7746H58.9843C58.8816 72.1119 58.6203 71.6079 58.2003 71.2626C57.7803 70.9172 57.2903 70.7446 56.7303 70.7446ZM70.0024 69.7786H71.3044L68.4484 77.2126C68.1497 78.0059 67.7297 78.6079 67.1884 79.0186C66.6564 79.4386 66.0404 79.6252 65.3404 79.5786V78.4446C66.199 78.5099 66.829 78.0339 67.2304 77.0166L67.3564 76.7506L64.3044 69.7786H65.6064L67.9864 75.2666L70.0024 69.7786ZM77.956 75.8966C77.2374 76.6059 76.3647 76.9606 75.338 76.9606C74.3114 76.9606 73.4387 76.6059 72.72 75.8966C72.0107 75.1872 71.656 74.3146 71.656 73.2786C71.656 72.2426 72.0107 71.3699 72.72 70.6606C73.4387 69.9512 74.3114 69.5966 75.338 69.5966C76.3647 69.5966 77.2374 69.9512 77.956 70.6606C78.6747 71.3699 79.034 72.2426 79.034 73.2786C79.034 74.3146 78.6747 75.1872 77.956 75.8966ZM75.338 75.7706C76.038 75.7706 76.626 75.5326 77.102 75.0566C77.578 74.5806 77.816 73.9879 77.816 73.2786C77.816 72.5692 77.578 71.9766 77.102 71.5006C76.626 71.0246 76.038 70.7866 75.338 70.7866C74.6474 70.7866 74.064 71.0246 73.588 71.5006C73.112 71.9766 72.874 72.5692 72.874 73.2786C72.874 73.9879 73.112 74.5806 73.588 75.0566C74.064 75.5326 74.6474 75.7706 75.338 75.7706ZM85.2999 69.7786H86.5179V76.7786H85.2999V75.7706C84.8052 76.5639 84.0492 76.9606 83.0319 76.9606C82.2106 76.9606 81.5526 76.7039 81.0579 76.1906C80.5632 75.6679 80.3159 74.9632 80.3159 74.0766V69.7786H81.5339V74.0066C81.5339 74.5759 81.6879 75.0192 81.9959 75.3366C82.3039 75.6446 82.7286 75.7986 83.2699 75.7986C83.8766 75.7986 84.3666 75.6119 84.7399 75.2386C85.1132 74.8559 85.2999 74.2726 85.2999 73.4886V69.7786ZM89.5902 70.9546C89.9916 70.0866 90.7196 69.6526 91.7742 69.6526V70.9266C91.1769 70.8986 90.6636 71.0572 90.2342 71.4026C89.8049 71.7479 89.5902 72.3032 89.5902 73.0686V76.7786H88.3722V69.7786H89.5902V70.9546ZM104.712 69.7786H105.986L103.816 76.7786H102.57L100.932 71.5986L99.294 76.7786H98.048L95.878 69.7786H97.152L98.692 75.0986L100.344 69.7786H101.52L103.172 75.1126L104.712 69.7786ZM112.762 69.7786H113.98V76.7786H112.762V75.5746C112.155 76.4986 111.273 76.9606 110.116 76.9606C109.136 76.9606 108.301 76.6059 107.61 75.8966C106.919 75.1779 106.574 74.3052 106.574 73.2786C106.574 72.2519 106.919 71.3839 107.61 70.6746C108.301 69.9559 109.136 69.5966 110.116 69.5966C111.273 69.5966 112.155 70.0586 112.762 70.9826V69.7786ZM110.27 75.7846C110.979 75.7846 111.572 75.5466 112.048 75.0706C112.524 74.5852 112.762 73.9879 112.762 73.2786C112.762 72.5692 112.524 71.9766 112.048 71.5006C111.572 71.0152 110.979 70.7726 110.27 70.7726C109.57 70.7726 108.982 71.0152 108.506 71.5006C108.03 71.9766 107.792 72.5692 107.792 73.2786C107.792 73.9879 108.03 74.5852 108.506 75.0706C108.982 75.5466 109.57 75.7846 110.27 75.7846ZM119.633 70.9546H117.771V74.7486C117.771 75.0939 117.837 75.3412 117.967 75.4906C118.107 75.6306 118.317 75.7052 118.597 75.7146C118.877 75.7146 119.223 75.7052 119.633 75.6866V76.7786C118.569 76.9186 117.79 76.8346 117.295 76.5266C116.801 76.2092 116.553 75.6166 116.553 74.7486V70.9546H115.167V69.7786H116.553V68.1826L117.771 67.8186V69.7786H119.633V70.9546ZM124.01 76.9606C122.955 76.9606 122.078 76.6106 121.378 75.9106C120.678 75.2012 120.328 74.3239 120.328 73.2786C120.328 72.2332 120.678 71.3606 121.378 70.6606C122.078 69.9512 122.955 69.5966 124.01 69.5966C124.701 69.5966 125.321 69.7646 125.872 70.1006C126.423 70.4272 126.833 70.8706 127.104 71.4306L126.082 72.0186C125.905 71.6452 125.629 71.3466 125.256 71.1226C124.892 70.8986 124.477 70.7866 124.01 70.7866C123.31 70.7866 122.722 71.0246 122.246 71.5006C121.779 71.9766 121.546 72.5692 121.546 73.2786C121.546 73.9786 121.779 74.5666 122.246 75.0426C122.722 75.5186 123.31 75.7566 124.01 75.7566C124.477 75.7566 124.897 75.6492 125.27 75.4346C125.643 75.2106 125.928 74.9119 126.124 74.5386L127.16 75.1406C126.861 75.6912 126.432 76.1346 125.872 76.4706C125.312 76.7972 124.691 76.9606 124.01 76.9606ZM131.848 69.5966C132.67 69.5966 133.328 69.8579 133.822 70.3806C134.317 70.8939 134.564 71.5939 134.564 72.4806V76.7786H133.346V72.5506C133.346 71.9812 133.192 71.5426 132.884 71.2346C132.576 70.9172 132.152 70.7586 131.61 70.7586C131.004 70.7586 130.514 70.9499 130.14 71.3326C129.767 71.7059 129.58 72.2846 129.58 73.0686V76.7786H128.362V66.9786H129.58V70.7866C130.075 69.9932 130.831 69.5966 131.848 69.5966ZM136.265 76.7786V66.5586H137.483V76.7786H136.265ZM139.957 68.5046C139.724 68.5046 139.528 68.4252 139.369 68.2666C139.21 68.1079 139.131 67.9166 139.131 67.6926C139.131 67.4686 139.21 67.2772 139.369 67.1186C139.528 66.9506 139.724 66.8666 139.957 66.8666C140.181 66.8666 140.372 66.9506 140.531 67.1186C140.69 67.2772 140.769 67.4686 140.769 67.6926C140.769 67.9166 140.69 68.1079 140.531 68.2666C140.372 68.4252 140.181 68.5046 139.957 68.5046ZM139.341 76.7786V69.7786H140.559V76.7786H139.341ZM143.453 71.6686C143.453 71.9392 143.589 72.1586 143.859 72.3266C144.13 72.4852 144.457 72.6159 144.839 72.7186C145.222 72.8119 145.605 72.9239 145.987 73.0546C146.37 73.1759 146.697 73.3906 146.967 73.6986C147.238 73.9972 147.373 74.3846 147.373 74.8606C147.373 75.4952 147.126 76.0039 146.631 76.3866C146.146 76.7692 145.521 76.9606 144.755 76.9606C144.074 76.9606 143.491 76.8112 143.005 76.5126C142.52 76.2139 142.175 75.8172 141.969 75.3226L143.019 74.7206C143.131 75.0566 143.341 75.3226 143.649 75.5186C143.957 75.7146 144.326 75.8126 144.755 75.8126C145.157 75.8126 145.488 75.7379 145.749 75.5886C146.011 75.4299 146.141 75.1872 146.141 74.8606C146.141 74.5899 146.006 74.3752 145.735 74.2166C145.465 74.0486 145.138 73.9179 144.755 73.8246C144.373 73.7219 143.99 73.6052 143.607 73.4746C143.225 73.3439 142.898 73.1292 142.627 72.8306C142.357 72.5319 142.221 72.1492 142.221 71.6826C142.221 71.0759 142.455 70.5766 142.921 70.1846C143.397 69.7926 143.99 69.5966 144.699 69.5966C145.269 69.5966 145.773 69.7272 146.211 69.9886C146.659 70.2406 146.995 70.5952 147.219 71.0526L146.197 71.6266C145.945 71.0292 145.446 70.7306 144.699 70.7306C144.354 70.7306 144.06 70.8146 143.817 70.9826C143.575 71.1412 143.453 71.3699 143.453 71.6686ZM152.35 70.9546H150.488V74.7486C150.488 75.0939 150.553 75.3412 150.684 75.4906C150.824 75.6306 151.034 75.7052 151.314 75.7146C151.594 75.7146 151.939 75.7052 152.35 75.6866V76.7786C151.286 76.9186 150.507 76.8346 150.012 76.5266C149.517 76.2092 149.27 75.6166 149.27 74.7486V70.9546H147.884V69.7786H149.27V68.1826L150.488 67.8186V69.7786H152.35V70.9546ZM157.949 68.5046C157.716 68.5046 157.52 68.4252 157.361 68.2666C157.203 68.1079 157.123 67.9166 157.123 67.6926C157.123 67.4686 157.203 67.2772 157.361 67.1186C157.52 66.9506 157.716 66.8666 157.949 66.8666C158.173 66.8666 158.365 66.9506 158.523 67.1186C158.682 67.2772 158.761 67.4686 158.761 67.6926C158.761 67.9166 158.682 68.1079 158.523 68.2666C158.365 68.4252 158.173 68.5046 157.949 68.5046ZM157.333 76.7786V69.7786H158.551V76.7786H157.333ZM161.446 71.6686C161.446 71.9392 161.581 72.1586 161.852 72.3266C162.122 72.4852 162.449 72.6159 162.832 72.7186C163.214 72.8119 163.597 72.9239 163.98 73.0546C164.362 73.1759 164.689 73.3906 164.96 73.6986C165.23 73.9972 165.366 74.3846 165.366 74.8606C165.366 75.4952 165.118 76.0039 164.624 76.3866C164.138 76.7692 163.513 76.9606 162.748 76.9606C162.066 76.9606 161.483 76.8112 160.998 76.5126C160.512 76.2139 160.167 75.8172 159.962 75.3226L161.012 74.7206C161.124 75.0566 161.334 75.3226 161.642 75.5186C161.95 75.7146 162.318 75.8126 162.748 75.8126C163.149 75.8126 163.48 75.7379 163.742 75.5886C164.003 75.4299 164.134 75.1872 164.134 74.8606C164.134 74.5899 163.998 74.3752 163.728 74.2166C163.457 74.0486 163.13 73.9179 162.748 73.8246C162.365 73.7219 161.982 73.6052 161.6 73.4746C161.217 73.3439 160.89 73.1292 160.62 72.8306C160.349 72.5319 160.214 72.1492 160.214 71.6826C160.214 71.0759 160.447 70.5766 160.914 70.1846C161.39 69.7926 161.982 69.5966 162.692 69.5966C163.261 69.5966 163.765 69.7272 164.204 69.9886C164.652 70.2406 164.988 70.5952 165.212 71.0526L164.19 71.6266C163.938 71.0292 163.438 70.7306 162.692 70.7306C162.346 70.7306 162.052 70.8146 161.81 70.9826C161.567 71.1412 161.446 71.3699 161.446 71.6686ZM171.162 73.8386C171.283 74.4639 171.568 74.9492 172.016 75.2946C172.473 75.6399 173.033 75.8126 173.696 75.8126C174.62 75.8126 175.292 75.4719 175.712 74.7906L176.748 75.3786C176.066 76.4332 175.04 76.9606 173.668 76.9606C172.557 76.9606 171.652 76.6152 170.952 75.9246C170.261 75.2246 169.916 74.3426 169.916 73.2786C169.916 72.2239 170.256 71.3466 170.938 70.6466C171.619 69.9466 172.501 69.5966 173.584 69.5966C174.61 69.5966 175.446 69.9606 176.09 70.6886C176.743 71.4072 177.07 72.2752 177.07 73.2926C177.07 73.4699 177.056 73.6519 177.028 73.8386H171.162ZM173.584 70.7446C172.93 70.7446 172.389 70.9312 171.96 71.3046C171.53 71.6686 171.264 72.1586 171.162 72.7746H175.838C175.735 72.1119 175.474 71.6079 175.054 71.2626C174.634 70.9172 174.144 70.7446 173.584 70.7446ZM186.03 69.5966C186.814 69.5966 187.449 69.8532 187.934 70.3666C188.419 70.8706 188.662 71.5566 188.662 72.4246V76.7786H187.444V72.4666C187.444 71.9252 187.304 71.5052 187.024 71.2066C186.744 70.9079 186.371 70.7586 185.904 70.7586C185.381 70.7586 184.961 70.9359 184.644 71.2906C184.336 71.6359 184.182 72.1679 184.182 72.8866V76.7786H182.964V72.4666C182.964 71.9252 182.829 71.5052 182.558 71.2066C182.297 70.9079 181.937 70.7586 181.48 70.7586C180.967 70.7586 180.537 70.9359 180.192 71.2906C179.856 71.6452 179.688 72.1772 179.688 72.8866V76.7786H178.47V69.7786H179.688V70.7166C180.164 69.9699 180.859 69.5966 181.774 69.5966C182.717 69.5966 183.403 69.9932 183.832 70.7866C184.317 69.9932 185.05 69.5966 186.03 69.5966ZM194.215 69.5966C195.195 69.5966 196.03 69.9559 196.721 70.6746C197.411 71.3839 197.757 72.2519 197.757 73.2786C197.757 74.3052 197.411 75.1779 196.721 75.8966C196.03 76.6059 195.195 76.9606 194.215 76.9606C193.057 76.9606 192.175 76.4986 191.569 75.5746V79.5786H190.351V69.7786H191.569V70.9826C192.175 70.0586 193.057 69.5966 194.215 69.5966ZM194.061 75.7846C194.761 75.7846 195.349 75.5466 195.825 75.0706C196.301 74.5852 196.539 73.9879 196.539 73.2786C196.539 72.5692 196.301 71.9766 195.825 71.5006C195.349 71.0152 194.761 70.7726 194.061 70.7726C193.351 70.7726 192.759 71.0152 192.283 71.5006C191.807 71.9766 191.569 72.5692 191.569 73.2786C191.569 73.9879 191.807 74.5852 192.283 75.0706C192.759 75.5466 193.351 75.7846 194.061 75.7846ZM202.868 70.9546H201.006V74.7486C201.006 75.0939 201.071 75.3412 201.202 75.4906C201.342 75.6306 201.552 75.7052 201.832 75.7146C202.112 75.7146 202.457 75.7052 202.868 75.6866V76.7786C201.804 76.9186 201.024 76.8346 200.53 76.5266C200.035 76.2092 199.788 75.6166 199.788 74.7486V70.9546H198.402V69.7786H199.788V68.1826L201.006 67.8186V69.7786H202.868V70.9546ZM209.346 69.7786H210.648L207.792 77.2126C207.493 78.0059 207.073 78.6079 206.532 79.0186C206 79.4386 205.384 79.6252 204.684 79.5786V78.4446C205.543 78.5099 206.173 78.0339 206.574 77.0166L206.7 76.7506L203.648 69.7786H204.95L207.33 75.2666L209.346 69.7786ZM211.164 76.9326C210.912 76.9326 210.697 76.8439 210.52 76.6666C210.342 76.4892 210.254 76.2746 210.254 76.0226C210.254 75.7706 210.342 75.5559 210.52 75.3786C210.697 75.2012 210.912 75.1126 211.164 75.1126C211.425 75.1126 211.64 75.2012 211.808 75.3786C211.985 75.5559 212.074 75.7706 212.074 76.0226C212.074 76.2746 211.985 76.4892 211.808 76.6666C211.64 76.8439 211.425 76.9326 211.164 76.9326Z" fill="#6D6D6D"/>
</svg>
