<svg width="20" height="16" viewBox="0 0 20 16" fill="none" xmlns="http://www.w3.org/2000/svg">
<path d="M19.0444 8.67476L12.2944 15.4248C12.083 15.6361 11.7964 15.7548 11.4975 15.7548C11.1986 15.7548 10.9119 15.6361 10.7006 15.4248C10.4893 15.2134 10.3705 14.9268 10.3705 14.6279C10.3705 14.329 10.4893 14.0424 10.7006 13.831L15.5297 9.00383H1.74841C1.45004 9.00383 1.1639 8.8853 0.952918 8.67432C0.74194 8.46334 0.623413 8.1772 0.623413 7.87883C0.623413 7.58046 0.74194 7.29431 0.952918 7.08333C1.1639 6.87235 1.45004 6.75383 1.74841 6.75383H15.5297L10.7025 1.92383C10.4911 1.71248 10.3724 1.42584 10.3724 1.12695C10.3724 0.828065 10.4911 0.541421 10.7025 0.330076C10.9138 0.118732 11.2005 3.14928e-09 11.4993 0C11.7982 -3.14928e-09 12.0849 0.118732 12.2962 0.330076L19.0462 7.08008C19.1511 7.18473 19.2343 7.30908 19.291 7.44598C19.3477 7.58288 19.3768 7.72963 19.3766 7.87781C19.3765 8.02599 19.347 8.17267 19.29 8.30944C19.233 8.4462 19.1495 8.57035 19.0444 8.67476Z" fill="white"/>
</svg>
