<svg width="12" height="11" viewBox="0 0 12 11" fill="none" xmlns="http://www.w3.org/2000/svg">
<path d="M10.0841 3.32338L8.20415 1.44297C8.14163 1.38043 8.06741 1.33083 7.98572 1.29699C7.90403 1.26315 7.81647 1.24573 7.72805 1.24573C7.63963 1.24573 7.55207 1.26315 7.47038 1.29699C7.38869 1.33083 7.31447 1.38043 7.25195 1.44297L2.06346 6.63187C2.00068 6.69416 1.9509 6.76831 1.91702 6.85001C1.88314 6.9317 1.86584 7.01932 1.86612 7.10776V8.98817C1.86612 9.16672 1.93705 9.33796 2.06331 9.46422C2.18956 9.59047 2.3608 9.6614 2.53935 9.6614H4.41976C4.5082 9.66168 4.59582 9.64438 4.67752 9.61051C4.75921 9.57663 4.83336 9.52685 4.89565 9.46406L10.0841 4.27557C10.1467 4.21306 10.1963 4.13883 10.2301 4.05714C10.264 3.97545 10.2814 3.8879 10.2814 3.79948C10.2814 3.71105 10.264 3.6235 10.2301 3.54181C10.1963 3.46012 10.1467 3.38589 10.0841 3.32338ZM4.41976 8.98817H2.53935V7.10776L6.24211 3.40501L8.12252 5.28542L4.41976 8.98817ZM8.59841 4.80911L6.718 2.92912L7.72784 1.91927L9.60825 3.79927L8.59841 4.80911Z" fill="#5D5D5D"/>
</svg>
