<svg width="10" height="11" viewBox="0 0 10 11" fill="none" xmlns="http://www.w3.org/2000/svg">
<path d="M8.94365 6.5998L5.2874 10.2561C5.24967 10.2938 5.20487 10.3238 5.15555 10.3442C5.10623 10.3647 5.05337 10.3752 4.99998 10.3752C4.94659 10.3752 4.89373 10.3647 4.84441 10.3442C4.79509 10.3238 4.75029 10.2938 4.71256 10.2561L1.05631 6.5998C0.980081 6.52357 0.937256 6.42018 0.937256 6.31238C0.937256 6.20457 0.980081 6.10118 1.05631 6.02496C1.13254 5.94873 1.23593 5.9059 1.34373 5.9059C1.45154 5.9059 1.55492 5.94873 1.63115 6.02496L4.59373 8.98804V1.03113C4.59373 0.923384 4.63653 0.820053 4.71272 0.743866C4.78891 0.667679 4.89224 0.624878 4.99998 0.624878C5.10773 0.624878 5.21106 0.667679 5.28724 0.743866C5.36343 0.820053 5.40623 0.923384 5.40623 1.03113V8.98804L8.36881 6.02496C8.44504 5.94873 8.54843 5.9059 8.65623 5.9059C8.76404 5.9059 8.86742 5.94873 8.94365 6.02496C9.01988 6.10118 9.06271 6.20457 9.06271 6.31238C9.06271 6.42018 9.01988 6.52357 8.94365 6.5998Z" fill="#F6F6F6"/>
</svg>
