<svg width="34" height="34" viewBox="0 0 34 34" fill="none" xmlns="http://www.w3.org/2000/svg">
<path d="M17 32C25.2843 32 32 25.2843 32 17C32 8.71573 25.2843 2 17 2C8.71573 2 2 8.71573 2 17C2 25.2843 8.71573 32 17 32Z"  stroke="#EC817D" stroke-width="2.25" stroke-linecap="round" stroke-linejoin="round"/>
<path d="M15.4805 18.0312L15.1055 12.418C15.0352 11.3242 15 10.5391 15 10.0625C15 9.41406 15.168 8.91016 15.5039 8.55078C15.8477 8.18359 16.2969 8 16.8516 8C17.5234 8 17.9727 8.23438 18.1992 8.70312C18.4258 9.16406 18.5391 9.83203 18.5391 10.707C18.5391 11.2227 18.5117 11.7461 18.457 12.2773L17.9531 18.0547C17.8984 18.7422 17.7812 19.2695 17.6016 19.6367C17.4219 20.0039 17.125 20.1875 16.7109 20.1875C16.2891 20.1875 15.9961 20.0117 15.832 19.6602C15.668 19.3008 15.5508 18.7578 15.4805 18.0312ZM16.7812 25.7422C16.3047 25.7422 15.8867 25.5898 15.5273 25.2852C15.1758 24.9727 15 24.5391 15 23.9844C15 23.5 15.168 23.0898 15.5039 22.7539C15.8477 22.4102 16.2656 22.2383 16.7578 22.2383C17.25 22.2383 17.668 22.4102 18.0117 22.7539C18.3633 23.0898 18.5391 23.5 18.5391 23.9844C18.5391 24.5312 18.3633 24.9609 18.0117 25.2734C17.6602 25.5859 17.25 25.7422 16.7812 25.7422Z" fill="#EC817D"/>
</svg>
